# xmcd
#
# Track frame offsets:
#	150
#	15315
#	31275
#	51512
#	68650
#	88988
#	107685
#	129544
#	145275
#	164501
#	181166
#	199683
#	215752
#	236782
#	256119
#	273979
#	291003
#	311143
#
# Disc length: 4412 seconds
#
# Revision: 0
# Processed by: cddbd v1.5.2PL0 Copyright (c) Steve Scherf et al.
# Submitted via: dBpowerAMP V4.0
#
DISCID=0d113a12
DTITLE=∂‡÷÷ - love songs
DYEAR=2007
DGENRE=Blues
TTITLE0=We belong together - Mariah Carey
TTITLE1=Fallin - Alicia Keys
TTITLE2=U Remind Me - Usher
TTITLE3=Unfaithful - Rihanna
TTITLE4=Un-break my heart - Toni Braxton
TTITLE5=Be Without You - Mary J Blige
TTITLE6=Dilemma - Nelly Featuring Kelly Rowland
TTITLE7=So Sick - Ne-Yo
TTITLE8=Lost Without U - Robin Thicke
TTITLE9=Too lottle Too late - JoJo
TTITLE10=Don't Wanna Try - Frankie J
TTITLE11=Have You Ever - Brandy
TTITLE12=P.D.A - John Legend
TTITLE13=You know I'm No good - Amy Winehouse
TTITLE14=I try - Macy Gray
TTITLE15=Whenever wherever whatever - Maxwell 
TTITLE16=Creep - TLC
TTITLE17=Lets get Married - Jagged Edge
EXTD=
EXTT0=
EXTT1=
EXTT2=
EXTT3=
EXTT4=
EXTT5=
EXTT6=
EXTT7=
EXTT8=
EXTT9=
EXTT10=
EXTT11=
EXTT12=
EXTT13=
EXTT14=
EXTT15=
EXTT16=
EXTT17=
PLAYORDER=
